<svg xmlns="http://www.w3.org/2000/svg" width="22.076" height="22.076" viewBox="0 0 22.076 22.076">
  <g id="streamline-icon-interface-dashboard-layout-3_48x48" data-name="streamline-icon-interface-dashboard-layout-3@48x48" transform="translate(1 1)">
    <g id="Group_307" data-name="Group 307" transform="translate(0 0)">
      <path id="Rectangle_90" data-name="Rectangle 90" d="M1.714-1H6.007A2.717,2.717,0,0,1,8.722,1.714V9.1A2.717,2.717,0,0,1,6.007,11.81H1.714A2.717,2.717,0,0,1-1,9.1V1.714A2.717,2.717,0,0,1,1.714-1ZM6.007,9.81A.715.715,0,0,0,6.722,9.1V1.714A.715.715,0,0,0,6.007,1H1.714A.715.715,0,0,0,1,1.714V9.1a.715.715,0,0,0,.714.714Z" transform="translate(12.355 9.266)" fill="#fff"/>
      <path id="Rectangle_91" data-name="Rectangle 91" d="M1.714-1H6.007A2.717,2.717,0,0,1,8.722,1.714v1.22A2.717,2.717,0,0,1,6.007,5.648H1.714A2.717,2.717,0,0,1-1,2.934V1.714A2.717,2.717,0,0,1,1.714-1ZM6.007,3.648a.715.715,0,0,0,.714-.714V1.714A.715.715,0,0,0,6.007,1H1.714A.715.715,0,0,0,1,1.714v1.22a.715.715,0,0,0,.714.714Z" transform="translate(12.355)" fill="#fff"/>
      <path id="Rectangle_92" data-name="Rectangle 92" d="M1.714-1H6.007A2.717,2.717,0,0,1,8.722,1.714V9.1A2.717,2.717,0,0,1,6.007,11.81H1.714A2.717,2.717,0,0,1-1,9.1V1.714A2.717,2.717,0,0,1,1.714-1ZM6.007,9.81A.715.715,0,0,0,6.722,9.1V1.714A.715.715,0,0,0,6.007,1H1.714A.715.715,0,0,0,1,1.714V9.1a.715.715,0,0,0,.714.714Z" fill="#fff"/>
      <path id="Rectangle_93" data-name="Rectangle 93" d="M1.714-1H6.007A2.717,2.717,0,0,1,8.722,1.714v1.22A2.717,2.717,0,0,1,6.007,5.648H1.714A2.717,2.717,0,0,1-1,2.934V1.714A2.717,2.717,0,0,1,1.714-1ZM6.007,3.648a.715.715,0,0,0,.714-.714V1.714A.715.715,0,0,0,6.007,1H1.714A.715.715,0,0,0,1,1.714v1.22a.715.715,0,0,0,.714.714Z" transform="translate(0 15.428)" fill="#fff"/>
    </g>
  </g>
</svg>
