<svg xmlns="http://www.w3.org/2000/svg" width="18.988" height="22.076" viewBox="0 0 18.988 22.076">
  <g id="streamline-icon-interface-file-zip_48x48" data-name="streamline-icon-interface-file-zip@48x48" transform="translate(1 1)">
    <g id="Group_309" data-name="Group 309" transform="translate(0 0)">
      <path id="Path_310" data-name="Path 310" d="M20.586,22.791H6.687a2.547,2.547,0,0,1-2.544-2.544V3.259A2.547,2.547,0,0,1,6.687.714h9.266a1,1,0,0,1,.707.293l6.177,6.177a1,1,0,0,1,.293.707V20.246A2.547,2.547,0,0,1,20.586,22.791ZM6.687,2.714a.545.545,0,0,0-.544.544V20.246a.545.545,0,0,0,.544.544h13.9a.545.545,0,0,0,.544-.544V8.306L15.539,2.714Z" transform="translate(-5.143 -1.714)" fill="#fff"/>
      <path id="Line_54" data-name="Line 54" d="M4.633,1H0A1,1,0,0,1-1,0,1,1,0,0,1,0-1H4.633a1,1,0,0,1,1,1A1,1,0,0,1,4.633,1Z" transform="translate(3.861 4.633)" fill="#fff"/>
      <path id="Line_55" data-name="Line 55" d="M4.633,1H0A1,1,0,0,1-1,0,1,1,0,0,1,0-1H4.633a1,1,0,0,1,1,1A1,1,0,0,1,4.633,1Z" transform="translate(3.861 9.266)" fill="#fff"/>
      <path id="Line_56" data-name="Line 56" d="M4.633,1H0A1,1,0,0,1-1,0,1,1,0,0,1,0-1H4.633a1,1,0,0,1,1,1A1,1,0,0,1,4.633,1Z" transform="translate(3.861 13.899)" fill="#fff"/>
      <path id="Line_57" data-name="Line 57" d="M0,16.443a1,1,0,0,1-1-1V0A1,1,0,0,1,0-1,1,1,0,0,1,1,0V15.443A1,1,0,0,1,0,16.443Z" transform="translate(6.177)" fill="#fff"/>
    </g>
  </g>
</svg>
