<svg xmlns="http://www.w3.org/2000/svg" width="22.076" height="22.076" viewBox="0 0 22.076 22.076">
  <g id="streamline-icon-interface-content-note-pad-text_48x48" data-name="streamline-icon-interface-content-note-pad-text@48x48" transform="translate(1 1)">
    <g id="Group_310" data-name="Group 310" transform="translate(0 0)">
      <path id="Line_58" data-name="Line 58" d="M0,5.633a1,1,0,0,1-1-1V0A1,1,0,0,1,0-1,1,1,0,0,1,1,0V4.633A1,1,0,0,1,0,5.633Z" transform="translate(5.405)" fill="#fff"/>
      <path id="Line_59" data-name="Line 59" d="M0,5.633a1,1,0,0,1-1-1V0A1,1,0,0,1,0-1,1,1,0,0,1,1,0V4.633A1,1,0,0,1,0,5.633Z" transform="translate(10.038)" fill="#fff"/>
      <path id="Line_60" data-name="Line 60" d="M0,5.633a1,1,0,0,1-1-1V0A1,1,0,0,1,0-1,1,1,0,0,1,1,0V4.633A1,1,0,0,1,0,5.633Z" transform="translate(14.671)" fill="#fff"/>
      <path id="Rectangle_94" data-name="Rectangle 94" d="M3.429-1H16.648a4.434,4.434,0,0,1,4.429,4.429v10.9a4.434,4.434,0,0,1-4.429,4.429H3.429A4.434,4.434,0,0,1-1,14.331V3.429A4.434,4.434,0,0,1,3.429-1ZM16.648,16.76a2.431,2.431,0,0,0,2.429-2.429V3.429A2.431,2.431,0,0,0,16.648,1H3.429A2.431,2.431,0,0,0,1,3.429v10.9A2.431,2.431,0,0,0,3.429,16.76Z" transform="translate(0 2.317)" fill="#fff"/>
      <path id="Line_61" data-name="Line 61" d="M10.81,1H0A1,1,0,0,1-1,0,1,1,0,0,1,0-1H10.81a1,1,0,0,1,1,1A1,1,0,0,1,10.81,1Z" transform="translate(4.633 10.038)" fill="#fff"/>
      <path id="Line_62" data-name="Line 62" d="M6.177,1H0A1,1,0,0,1-1,0,1,1,0,0,1,0-1H6.177a1,1,0,0,1,1,1A1,1,0,0,1,6.177,1Z" transform="translate(4.633 14.671)" fill="#fff"/>
    </g>
  </g>
</svg>
